/* XPM */
static char *_91a6d47395c40d0f00a79d5bec58490[] = {
/* columns rows colors chars-per-pixel */
"32 32 150 2 ",
"   c #EE4377",
".  c #EF4B75",
"X  c #EF5374",
"o  c #EF5B73",
"O  c #E65278",
"+  c #F05F72",
"@  c #D56B79",
"#  c #D67176",
"$  c #D77874",
"%  c #D87D71",
"&  c #F16E6E",
"*  c #F27E67",
"=  c #F2756A",
"-  c #F27B68",
";  c #E76474",
":  c #F06471",
">  c #F06870",
",  c #F69D4F",
"<  c #F48C5E",
"1  c #F59656",
"2  c #F59A52",
"3  c #F5915A",
"4  c #F6A04C",
"5  c #DA856E",
"6  c #DB8B6B",
"7  c #DE9B62",
"8  c #DD9268",
"9  c #F38364",
"0  c #F48861",
"q  c #336DB4",
"w  c #3972B6",
"e  c #3673B8",
"r  c #3976B9",
"t  c #3D78BA",
"y  c #7C639E",
"u  c #5B6AA9",
"i  c #437CBC",
"p  c #6267A7",
"a  c #6269A6",
"s  c #6A6BA2",
"d  c #656DA8",
"f  c #6E73A2",
"g  c #6572AA",
"h  c #6B74AA",
"j  c #6D7BAB",
"k  c #757CA4",
"l  c #717EAD",
"z  c #BA5C87",
"x  c #A9618D",
"c  c #B26389",
"v  c #4A82BF",
"b  c #7A85A7",
"n  c #7383AD",
"m  c #7689AF",
"M  c #7085B2",
"N  c #7D86B4",
"B  c #768EB5",
"V  c #7A8CB1",
"C  c #7C93B2",
"Z  c #7F9BB6",
"A  c #7B96B8",
"S  c #4B85C1",
"D  c #4E89C2",
"F  c #528DC4",
"G  c #5692C6",
"H  c #5A95C7",
"J  c #5A96C8",
"K  c #5E9CCA",
"L  c #679DC6",
"P  c #619FCC",
"I  c #65A3CE",
"U  c #6DA3CB",
"Y  c #73ACCD",
"T  c #67A7D0",
"R  c #6CACD2",
"E  c #6FB0D4",
"W  c #73B5D5",
"Q  c #76B9D7",
"!  c #7BBDD7",
"~  c #77BAD8",
"^  c #79BED9",
"/  c #7EC3DB",
"(  c #808EAA",
")  c #8596AC",
"_  c #8088B7",
"`  c #898DBD",
"'  c #8497B7",
"]  c #829CB5",
"[  c #8B94BD",
"{  c #85A0B7",
"}  c #85A2B8",
"|  c #8AA6BA",
" . c #8DAABB",
".. c #92AEBE",
"X. c #93B3BD",
"o. c #9397C2",
"O. c #8CAEC0",
"+. c #99A4C3",
"@. c #9EAEC6",
"#. c #9EA3C8",
"$. c #83B6CC",
"%. c #87B9CC",
"&. c #88B8CA",
"*. c #9BB7C5",
"=. c #ABB3CF",
"-. c #ACBCCE",
";. c #B1B5D3",
":. c #B3B9D3",
">. c #84C7DD",
",. c #84CCDE",
"<. c #8BCCDF",
"1. c #92C6DF",
"2. c #B9CBD5",
"3. c #BEC7D9",
"4. c #99CFE3",
"5. c #87D1E0",
"6. c #96D4E3",
"7. c #A7CBE3",
"8. c #ACD1E0",
"9. c #AFDDEA",
"0. c #B5D7E9",
"q. c #B4DCEA",
"w. c #BBDBEB",
"e. c #B8E2EC",
"r. c #C4C7DE",
"t. c #C2CDDB",
"y. c #C9CFDF",
"u. c #CDD6E2",
"i. c #C1DCEA",
"p. c #D2D6E5",
"a. c #D4D9E6",
"s. c #D7DEE8",
"d. c #DADDEA",
"f. c #C4E3EF",
"g. c #D6E2E6",
"h. c #DCE3EA",
"j. c #C7E7F0",
"k. c #D6EEF4",
"l. c #E1E3EE",
"z. c #E5E7F0",
"x. c #E5EAF1",
"c. c #E8EEF2",
"v. c #E2F1F7",
"b. c #EEF1F5",
"n. c #EAF5F9",
"m. c #F0F3F6",
"M. c #F6F7FA",
"N. c #F5F8FA",
"B. c #FEFFFF",
"V. c None",
/* pixels */
"V.V.V.V.V.V.V.V.V.V.V.V.V.V.V.V.V.V.V.V.V.V.V.V.V.V.V.V.V.V.V.V.",
"V.V.V.V.V.V.V.V.V.V.V.V.V.V.V.V.V.V.V.V.V.V.V.V.V.V.V.V.V.V.V.V.",
"V.V.V.V.V.V.V.V.V.V.V.V.V.V.V.V.V.V.V.V.V.V.V.V.V.V.V.V.V.V.V.V.",
"V.V.V.V.V.V.V.V.V.V.V.V.V.V.V.V.V.V.V.V.V.V.V.V.V.V.V.V.V.V.V.V.",
"V.V.V.V.V.V.V.V.V.V.V.1 2 , 4 V.V.T R E W V.V.V.V.V.V.V.V.V.V.V.",
"V.V.V.V.V.V.V.V.V.V.1 1 1 , 4 7 L I T E W ~ V.V.V.V.V.V.V.V.V.V.",
"V.V.V.V.V.V.V.V.V.0 0 1 1 1 7 ) Z U I R E Q ~ V.V.V.V.V.V.V.V.V.",
"V.V.V.V.V.V.V.V.0 0 0 < 3 8 b C Z { U R E W ~ / V.V.V.V.V.V.V.V.",
"V.V.V.V.V.V.V.* 9 9 0 0 6 b m C Z ] } U E E Q ^ / V.V.V.V.V.V.V.",
"V.V.V.V.V.V.= - - 9 0 5 k n n V C ] }  .Y E Q ^ / / V.V.V.V.V.V.",
"V.V.V.V.V.& = = - 9 % f j l n V C ] ] |  .Y W ~ ^ / / V.V.V.V.V.",
"V.V.V.V.: & & = = $ s ;.M.y.V m V C -.c.N.*.i.n.B.N.k.6.V.V.V.V.",
"V.V.V.: : > & & # s u j N.B.z.C V -.B.B.h.N.B.B.B.B.B.B.e.V.V.V.",
"V.V.X o + : > @ s p a a [ B.B.a.+.B.B.c.m.B.B.g.8.f.B.B.B.6.V.V.",
"V.. X X o + ; s p a a a a -.B.B.B.B.M.t.B.B.2...X.^ 4.N.B.k.5.V.",
"  . . X X o c p a a a a a f d.B.B.B.@.s.B.g. ...X.%./ / >.,.5.5.",
"      . X X x p a a a a p d =.B.B.b.' l.B.u.| ..X.&.^ / >.,.5.5.",
"      . . X z p a p a a p _ M.B.B.B.u.t.B.m.|  ...$.^ q.f.9.,.5.",
"V.      . . X y p a p a h l.B.M.u.B.B.u.B.B.h.....W w.B.B.j.,.V.",
"V.V.        X O y p p p r.B.B.+.l z.B.N.c.B.B.B.v.N.B.B.n.<.V.V.",
"V.V.V.        . O y p o.B.B.#.h j N z.B.c.t.B.B.B.B.B.v.>.V.V.V.",
"V.V.V.V.        . O y ` ;.N p g h l n =.3.A U 7.w.0.1.~ V.V.V.V.",
"V.V.V.V.V.      . . O y p p p d h j n V B H P I R E Q V.V.V.V.V.",
"V.V.V.V.V.V.      . . O y p p d h h l n F H K P T R V.V.V.V.V.V.",
"V.V.V.V.V.V.V.        . O y p p g h j v F G J I I V.V.V.V.V.V.V.",
"V.V.V.V.V.V.V.V.        . O y p d g i S D F J K V.V.V.V.V.V.V.V.",
"V.V.V.V.V.V.V.V.V.      . . O y u e t i S F H V.V.V.V.V.V.V.V.V.",
"V.V.V.V.V.V.V.V.V.V.        . O q q r i S F V.V.V.V.V.V.V.V.V.V.",
"V.V.V.V.V.V.V.V.V.V.V.      . V.V.q e t v V.V.V.V.V.V.V.V.V.V.V.",
"V.V.V.V.V.V.V.V.V.V.V.V.V.V.V.V.V.V.V.V.V.V.V.V.V.V.V.V.V.V.V.V.",
"V.V.V.V.V.V.V.V.V.V.V.V.V.V.V.V.V.V.V.V.V.V.V.V.V.V.V.V.V.V.V.V.",
"V.V.V.V.V.V.V.V.V.V.V.V.V.V.V.V.V.V.V.V.V.V.V.V.V.V.V.V.V.V.V.V."
};
