/* XPM */
static char *_39ee9c98c164d7af555657020575aeb[] = {
/* columns rows colors chars-per-pixel */
"16 16 106 2 ",
"   c #EE4277",
".  c #EE4776",
"X  c #EE4876",
"o  c #EF5175",
"O  c #EF5B73",
"+  c #F06C6F",
"@  c #E97A6C",
"#  c #F1736B",
"$  c #F27B68",
"%  c #E76C72",
"&  c #F06471",
"*  c #F48E5D",
"=  c #ED9F55",
"-  c #ED945D",
";  c #F59457",
":  c #F59A52",
">  c #EB8766",
",  c #F38165",
"<  c #F48861",
"1  c #3F7ABB",
"2  c #7C6C9B",
"3  c #476CAF",
"4  c #587EB7",
"5  c #6267A7",
"6  c #616AA5",
"7  c #6169A6",
"8  c #6268A6",
"9  c #636AA7",
"0  c #6870A9",
"q  c #6B74AB",
"w  c #6B75AB",
"e  c #6C75AC",
"r  c #BA5888",
"t  c #8E6696",
"y  c #85639A",
"u  c #C35785",
"i  c #7583AF",
"p  c #778CAF",
"a  c #7782B0",
"s  c #7F84B7",
"d  c #7E8FB3",
"f  c #6690BE",
"g  c #7D93B2",
"h  c #7F98B4",
"j  c #7C9CB8",
"k  c #4D88C2",
"l  c #528DC4",
"z  c #5D9ACA",
"x  c #619FCC",
"c  c #66A1CB",
"v  c #6BA8CF",
"b  c #6BABD2",
"n  c #6CACD2",
"m  c #71AFD2",
"M  c #72B3D5",
"N  c #74B6D6",
"B  c #76BAD8",
"V  c #79BDD9",
"C  c #7EC3DB",
"Z  c #88829C",
"A  c #92939F",
"S  c #9184A5",
"D  c #818AB7",
"F  c #8289B8",
"G  c #82A4BB",
"H  c #8DA8BB",
"J  c #8DB3C3",
"K  c #8DB7C5",
"L  c #9DB7C4",
"P  c #ADB5CF",
"I  c #85CFDF",
"U  c #8FC9DF",
"Y  c #B3C3D2",
"T  c #B4CCD9",
"R  c #86D0E0",
"E  c #A6D8E7",
"W  c #A8D9E8",
"Q  c #ABD8E8",
"!  c #B8DAEA",
"~  c #BFE4EE",
"^  c #C4CDDD",
"/  c #C7D0DE",
"(  c #CCD1E1",
")  c #C4DAE5",
"_  c #D2D6E5",
"`  c #D6DCE7",
"'  c #D8D9E9",
"]  c #D8DAE9",
"[  c #C4E3EE",
"{  c #DDE1EB",
"}  c #CCEBF2",
"|  c #D5E4F0",
" . c #D2E8F2",
".. c #E2E9EE",
"X. c #E7EBF1",
"o. c #E0EDF5",
"O. c #ECEDF4",
"+. c #EDEEF4",
"@. c #EAF3F7",
"#. c #E4F3F8",
"$. c #F6F6FA",
"%. c #F8F9FB",
"&. c #F8FAFB",
"*. c #F8FBFD",
"=. c gray100",
"-. c None",
/* pixels */
"-.-.-.-.-.-.-.-.-.-.-.-.-.-.-.-.",
"-.-.-.-.-.-.-.-.-.-.-.-.-.-.-.-.",
"-.-.-.-.-.; : = c n N -.-.-.-.-.",
"-.-.-.-.< * - A j v M V -.-.-.-.",
"-.-.-.$ , > Z p h G m B C -.-.-.",
"-.-.+ # @ S P d g Y T ! [ W -.-.",
"-.O & % 2 w O.{ ^ =.=.%.@.=.} -.",
"X o O t 7 7 D =.=.X.=.L K W ~ R ",
"  X o y 5 7 e $.=.` %.H J U E I ",
"-.  . u 5 7 ] +._ =.=...) *.#.-.",
"-.-.  . r F ] F a ( / | o. .-.-.",
"-.-.-.  . r 5 7 w i f x b -.-.-.",
"-.-.-.-.  . r 5 0 4 l z -.-.-.-.",
"-.-.-.-.-.  . r 3 1 k -.-.-.-.-.",
"-.-.-.-.-.-.  -.-.-.-.-.-.-.-.-.",
"-.-.-.-.-.-.-.-.-.-.-.-.-.-.-.-."
};
