/* XPM */
static char *b729226b0b8641f39a805951a527cec2[] = {
/* columns rows colors chars-per-pixel */
"64 64 188 2 ",
"   c #BC767F",
".  c #BE7C7D",
"X  c #EE4377",
"o  c #EF4C75",
"O  c #E65577",
"+  c #EF5375",
"@  c #EF5A73",
"#  c #E45578",
"$  c #F05E73",
"%  c #DE6478",
"&  c #F06D6E",
"*  c #F27E67",
"=  c #F1746B",
"-  c #F27A68",
";  c #EF6670",
":  c #F06371",
">  c #F06870",
",  c #F69E4E",
"<  c #F48D5E",
"1  c #F59656",
"2  c #F59A52",
"3  c #F5915A",
"4  c #F6A04C",
"5  c #C1837C",
"6  c #C38A7A",
"7  c #C79576",
"8  c #CA9C74",
"9  c #C59078",
"0  c #F38364",
"q  c #F48961",
"w  c #2F6AB3",
"e  c #326CB4",
"r  c #3471B7",
"t  c #3A73B7",
"y  c #3774B8",
"u  c #3A76B9",
"i  c #3E78BA",
"p  c #7C649D",
"a  c #5C6AAA",
"s  c #447CBC",
"d  c #497EBC",
"f  c #6267A7",
"g  c #6B67A4",
"h  c #6269A6",
"j  c #6A68A3",
"k  c #666EA8",
"l  c #6671A7",
"z  c #6672A9",
"x  c #6A74AA",
"c  c #6D7BAB",
"v  c #717DAD",
"b  c #6B7FB0",
"n  c #767AB2",
"m  c #BA5C87",
"M  c #8E6297",
"N  c #85639A",
"B  c #A0658F",
"V  c #BA6B83",
"C  c #BC7181",
"Z  c #4982BF",
"A  c #7383AE",
"S  c #7689AF",
"D  c #788CAF",
"F  c #6E83B2",
"G  c #7783B1",
"H  c #7F85B7",
"J  c #758BB2",
"K  c #798DB1",
"L  c #7790B6",
"P  c #7D93B2",
"I  c #7F98B4",
"U  c #7A95B8",
"Y  c #7D99B9",
"T  c #4B85C1",
"R  c #4E89C2",
"E  c #528CC4",
"W  c #5692C6",
"Q  c #5A93C6",
"!  c #5996C8",
"~  c #5D9ACA",
"^  c #6E9DC2",
"/  c #619ECB",
"(  c #65A3CE",
")  c #74A4C4",
"_  c #77A9C7",
"`  c #7BADC9",
"'  c #67A7D0",
"]  c #68A7D0",
"[  c #6CACD2",
"{  c #7BAFD4",
"}  c #6FB0D4",
"|  c #73B4D5",
" . c #76B9D7",
".. c #7CBBD4",
"X. c #77BAD8",
"o. c #79BDD9",
"O. c #7DC2DB",
"+. c #8086B7",
"@. c #818AB6",
"#. c #838CB8",
"$. c #8394B7",
"%. c #829CB5",
"&. c #8699B8",
"*. c #8D9BBC",
"=. c #929DBF",
"-. c #86A1B7",
";. c #87A3B8",
":. c #8BA5BA",
">. c #8DAABB",
",. c #90A3BE",
"<. c #91AEBD",
"1. c #93B2BD",
"2. c #8AACC0",
"3. c #95A6C1",
"4. c #9DA1C7",
"5. c #96AAC1",
"6. c #9AADC4",
"7. c #9EA4C8",
"8. c #8CB2C3",
"9. c #83B6CC",
"0. c #84B9CD",
"q. c #8BB8C8",
"w. c #94B5C1",
"e. c #9CB3C4",
"r. c #80BDDA",
"t. c #A7AACD",
"y. c #A8AFCD",
"u. c #A0B0C7",
"i. c #A1B8C6",
"p. c #ACB6CE",
"a. c #ACBFCE",
"s. c #AFBCD0",
"d. c #B5BBD4",
"f. c #81C6DC",
"g. c #88C0DC",
"h. c #84CCDE",
"j. c #8ACBDF",
"k. c #ADC4CD",
"l. c #B6C4D4",
"z. c #BAC4D7",
"x. c #B7C9D4",
"c. c #BEC4D9",
"v. c #BFC9D9",
"b. c #8CCEE0",
"n. c #96CBE1",
"m. c #99CFE2",
"M. c #86D0E0",
"N. c #8ED1E1",
"B. c #9DD3E4",
"V. c #AED4E7",
"C. c #AFD6E8",
"Z. c #ABDBE9",
"A. c #B0D0E6",
"S. c #B0D7E8",
"D. c #B3DBEA",
"F. c #BFDBEB",
"G. c #B7E0EB",
"H. c #BBE2ED",
"J. c #C2C7DC",
"K. c #C3CCDC",
"L. c #CED5E3",
"P. c #D1D4E4",
"I. c #D5DCE6",
"U. c #DADDEA",
"Y. c #C4E2EF",
"T. c #C9E3EF",
"R. c #D1E5EF",
"E. c #DDE4EC",
"W. c #C6E6F0",
"Q. c #CAE5F0",
"!. c #CDE8F1",
"~. c #D3E7F2",
"^. c #D3E9F3",
"/. c #DFEDF5",
"(. c #E2E4EE",
"). c #E2E9EE",
"_. c #E5E7F0",
"`. c #E4EBF3",
"'. c #EBEDF3",
"]. c #E3F2F7",
"[. c #EDF1F5",
"{. c #E4F3F8",
"}. c #EBF7FA",
"|. c #F1F3F6",
" X c #F5F7FA",
".X c #F5F9FB",
"XX c #FFFFFF",
"oX c None",
/* pixels */
"oXoXoXoXoXoXoXoXoXoXoXoXoXoXoXoXoXoXoXoXoXoXoXoXoXoXoXoXoXoXoXoXoXoXoXoXoXoXoXoXoXoXoXoXoXoXoXoXoXoXoXoXoXoXoXoXoXoXoXoXoXoXoXoX",
"oXoXoXoXoXoXoXoXoXoXoXoXoXoXoXoXoXoXoXoXoXoXoXoXoXoXoXoXoXoXoXoXoXoXoXoXoXoXoXoXoXoXoXoXoXoXoXoXoXoXoXoXoXoXoXoXoXoXoXoXoXoXoXoX",
"oXoXoXoXoXoXoXoXoXoXoXoXoXoXoXoXoXoXoXoXoXoXoXoXoXoXoXoXoXoXoXoXoXoXoXoXoXoXoXoXoXoXoXoXoXoXoXoXoXoXoXoXoXoXoXoXoXoXoXoXoXoXoXoX",
"oXoXoXoXoXoXoXoXoXoXoXoXoXoXoXoXoXoXoXoXoXoXoXoXoXoXoXoXoXoXoXoXoXoXoXoXoXoXoXoXoXoXoXoXoXoXoXoXoXoXoXoXoXoXoXoXoXoXoXoXoXoXoXoX",
"oXoXoXoXoXoXoXoXoXoXoXoXoXoXoXoXoXoXoXoXoXoXoXoXoXoXoXoXoXoXoXoXoXoXoXoXoXoXoXoXoXoXoXoXoXoXoXoXoXoXoXoXoXoXoXoXoXoXoXoXoXoXoXoX",
"oXoXoXoXoXoXoXoXoXoXoXoXoXoXoXoXoXoXoXoXoXoXoXoXoXoXoXoXoXoXoXoXoXoXoXoXoXoXoXoXoXoXoXoXoXoXoXoXoXoXoXoXoXoXoXoXoXoXoXoXoXoXoXoX",
"oXoXoXoXoXoXoXoXoXoXoXoXoXoXoXoXoXoXoXoXoXoXoXoXoXoXoXoXoXoXoXoXoXoXoXoXoXoXoXoXoXoXoXoXoXoXoXoXoXoXoXoXoXoXoXoXoXoXoXoXoXoXoXoX",
"oXoXoXoXoXoXoXoXoXoXoXoXoXoXoXoXoXoXoXoXoXoXoXoXoX, oXoXoXoXoXoXoXoXoXoXoXoXoXoXoXoXoXoXoXoXoXoXoXoXoXoXoXoXoXoXoXoXoXoXoXoXoXoX",
"oXoXoXoXoXoXoXoXoXoXoXoXoXoXoXoXoXoXoXoXoXoX1 2 2 2 , , 4 oXoXoXoXoXoX[ ] } | | | oXoXoXoXoXoXoXoXoXoXoXoXoXoXoXoXoXoXoXoXoXoXoX",
"oXoXoXoXoXoXoXoXoXoXoXoXoXoXoXoXoXoXoXoXoX1 1 1 2 2 , , 4 4 oXoXoXoX( ' [ [ [ | | | X.oXoXoXoXoXoXoXoXoXoXoXoXoXoXoXoXoXoXoXoXoX",
"oXoXoXoXoXoXoXoXoXoXoXoXoXoXoXoXoXoXoXoX3 3 1 1 1 2 2 2 4 4 4 oXoX/ ( ' ] [ [ } | |  .X.oXoXoXoXoXoXoXoXoXoXoXoXoXoXoXoXoXoXoXoX",
"oXoXoXoXoXoXoXoXoXoXoXoXoXoXoXoXoXoXoX< 3 3 3 1 1 1 2 2 2 , 4 8 ^ / ~ ( ] ] [ | | |  .X.o.oXoXoXoXoXoXoXoXoXoXoXoXoXoXoXoXoXoXoX",
"oXoXoXoXoXoXoXoXoXoXoXoXoXoXoXoXoXoXq < < 3 3 3 1 1 1 2 , 2 8 I %.^ ( ( ( ] [ } } |  . .X.o.oXoXoXoXoXoXoXoXoXoXoXoXoXoXoXoXoXoX",
"oXoXoXoXoXoXoXoXoXoXoXoXoXoXoXoXoXq q q < < 3 3 3 1 1 1 4 8 L P Y %.^ ( ' ] [ [ } | |  . .o.o.oXoXoXoXoXoXoXoXoXoXoXoXoXoXoXoXoX",
"oXoXoXoXoXoXoXoXoXoXoXoXoXoXoXoX0 q q q < < < 3 3 1 3 1 8 D P I Y %.%.^ ( ' ] [ } } | | X.o.O.O.oXoXoXoXoXoXoXoXoXoXoXoXoXoXoXoX",
"oXoXoXoXoXoXoXoXoXoXoXoXoXoXoX0 0 q q q q q q < 3 3 3 9 D D D P %.%.%.-.) ' ] [ } } |  . .X.X.O.O.oXoXoXoXoXoXoXoXoXoXoXoXoXoXoX",
"oXoXoXoXoXoXoXoXoXoXoXoXoXoX* 0 0 0 0 q q q < < 3 3 5 A A S D I P I %.-.;.) ] [ } } }  . .X.o.o.O.O.oXoXoXoXoXoXoXoXoXoXoXoXoXoX",
"oXoXoXoXoXoXoXoXoXoXoXoXoX- * * 0 * 0 0 0 q q q 3 6 A A S S D P P I %.%.;.;._ ] [ } } }  . .o.o.O.O.O.oXoXoXoXoXoXoXoXoXoXoXoXoX",
"oXoXoXoXoXoXoXoXoXoXoXoX= - - * * * 0 0 q 0 q q 6 c A A S S D D P I %.%.-.-.;._ [ } }  . . .X.o.O.O.f.f.oXoXoXoXoXoXoXoXoXoXoXoX",
"oXoXoXoXoXoXoXoXoXoXoX= = - - - * * * 0 0 0 q 5 c c c A A S D P P I %.%.%.-.:.:.` [ } } }  .X.o.o.O.O.f.f.oXoXoXoXoXoXoXoXoXoXoX",
"oXoXoXoXoXoXoXoXoXoX= = = = = - - * * * 0 0 . z c c c c S S S K P P P %.%.-.:.:.>._ } } |  . .o.o.O.O.f.f.f.oXoXoXoXoXoXoXoXoXoX",
"oXoXoXoXoXoXoXoXoX& & & = = = - - - * * * . l z l c A A A S S K P P P I %.-.-.:.>.>.` } | |  .X.o.O.O.O.f.f.f.oXoXoXoXoXoXoXoXoX",
"oXoXoXoXoXoXoXoX> > & & & = & = - - - * . h G P.U.c.=.c A A S S D P P %.&.%.a.L.).E.i.` } g.V.!.].].].Y.Z.f.h.h.oXoXoXoXoXoXoXoX",
"oXoXoXoXoXoXoX: > > > & & & = = = = -   h h x (.XXXXXXU.$.A S S D P P I 1.).XXXXXX'.1.e.R.XXXXXXXXXXXXXXXX.XG.h.M.oXoXoXoXoXoXoX",
"oXoXoXoXoXoX$ : : ; > & & & = = = = C h h h l D .XXXXXXX X*.S S D P $.<..XXXXXXX Xi.x..XXXXXXXXXXXXXXXXXXXXXXX}.N.M.oXoXoXoXoXoX",
"oXoXoXoXoX@ $ $ : : ; > > & & & = C h h h h a l i.XXXXXXXX[.K S D D ,..XXXXXXXXXx.x.XXXXXXXXXXXXXXXXXXXXXXXXXXXX}.N.h.oXoXoXoXoX",
"oXoXoXoX@ @ @ $ $ : : ; > > & &   h h h h h h h l L.XXXXXXXXU.S D $._.XXXXXXXXI.a.XXXXXXXXXXXX[.Q.Y.^..XXXXXXXXXXX{.h.M.oXoXoXoX",
"oXoXoX+ + + @ @ $ $ : : ; > > V a h h h h h h h j c '.XXXXXXXXz.S K.XXXXXXXX|.,..XXXXXXXXX'.k.1.9. .o.O.Y.XXXXXXXXXXH.M.M.oXoXoX",
"oXoXo o + + @ @ @ $ $ : : ; V f h h a h h h h h l l #.XXXXXXXXXXK.XXXXXXXXXX6.K.XXXXXXXX).1.1.1.1.0.o.O.O.H.XXXXXXXX.XM.M.M.oXoX",
"oXo o o o + + + @ @ $ $ : % j h h h f f h h h h h l x s.XXXXXXXXXXXXXXXXXXl.%.|.XXXXXX|.1.>.1.1.1.w...o.O.O.!.XXXXXXXXZ.M.M.oXoX",
"oXX o o o + + + + @ @ $ $ B h h h h h f h h h h h l l l P.XXXXXXXXXXXXXXI.$.,.XXXXXXXXx.:.>.<.<.1.1.q.o.O.O.O.f.O.h.h.M.M.M.M.oX",
"oXX X o o o o + + @ @ @ $ p h f h h h h h h h h h h l l A (.XXXXXXXXXX[.$.P e.XXXXXXXXe.:.>.<.1.1.1.w.o.O.O.O.O.h.f.h.h.h.M.M.oX",
"X X X X X o o o + + + @ @ f h f h a f f h h h h h h k l x d.XXXXXXXXXXp.K P u.XXXXXXXX;.>.>.<.<.1.1.1.o.o.O.O.f.f.f.h.h.h.h.M.oX",
"oXX X X X o o o + + + + @ g f f h f f h h h h h h h k z v '.XXXXXXXXXX[.&.P 6.XXXXXXXX6.:.:.>.<.<.1.1.o.o.O.O.O.f.f.h.h.M.M.M.oX",
"oXX X X X X o o o o + + + M f f h h f h h h f h l h h z P.XXXXXXXXXXXXXXI.P &.XXXXXXXXx.;.>.>.>.>.1.8.o.o.o.O.O.O.h.h.h.h.M.M.oX",
"oXX X X X X X X o o + + + m f f f h f h h h h h h h h 7.XXXXXXXXXXXXXXXXXXd.P |.XXXXXX|.;.>.>.,.<.1.9.X.X.o.D.{.{.{.{.B.h.h.M.oX",
"oXoXX X X X X X o o o o + + N f f f h f f h h h h a +.|.XXXXXXXXJ.XXXXXXXXXX3.v.XXXXXXXXI.:.:.>.<.8.| X.X.n..XXXXXXX.XN.h.h.oXoX",
"oXoXoXX X X X X X o o o + + O p f f f h h h h h h z (.XXXXXXXXd.c J.XXXXXXXX|.*..XXXXXXXXX).e.>.2.| |  .S..XXXXXXXXXW.h.h.oXoXoX",
"oXoXoXoXX X X X X X o o o o + O p f f h h h f h h J.XXXXXXXXU.c c v _.XXXXXXXXI.s.XXXXXXXXXXXXE.F.F.T.|.XXXXXXXXXX.Xj.f.oXoXoXoX",
"oXoXoXoXoXX X X X X X X o o + + O p f f f f h f 4.XXXXXXXX(.v x c v K  XXXXXXXXXl.L.XXXXXXXXXXXXXXXXXXXXXXXXXXXX.Xm.f.oXoXoXoXoX",
"oXoXoXoXoXoXX X X X X X X o o o o O p h h h h n XXXXXXXX X@.x x c c v *. XXXXXXX X3.z.XXXXXXXXXXXXXXXXXXXXXXXX.XB.O.oXoXoXoXoXoX",
"oXoXoXoXoXoXoXX X X X X X X o o + o O p h f x '.XXXXXX(.+.h l x c c v v *.(.XXXXXX'.*.6.(.XXXXXXXXXXXXXXXXXX!.g.O.oXoXoXoXoXoXoX",
"oXoXoXoXoXoXoXoXX X X X X X o o o o + O p f n (.XX(.t.x h h k x x c v v S S p.U.(.E.,.Y / { A.~./.`.].R.V.o.X.o.oXoXoXoXoXoXoXoX",
"oXoXoXoXoXoXoXoXoXX X X X X X X o o o + O N f f h f f h h h k x x c v v G G G K K P U ~ ~ ( ( ' [ [ [ }  . .X.oXoXoXoXoXoXoXoXoX",
"oXoXoXoXoXoXoXoXoXoXX X X X X X X o o + + O p f f h f f h h k x x c v v v G G S K L Q ~ ~ / ( ( ' [ [ }  .| oXoXoXoXoXoXoXoXoXoX",
"oXoXoXoXoXoXoXoXoXoXoXX X X X X X X X + + + O p f f h f f f h k k x x v v G S S J Q ! ~ ~ / ( ( ' [ } } } oXoXoXoXoXoXoXoXoXoXoX",
"oXoXoXoXoXoXoXoXoXoXoXoXX X X X X X X o o o + O p f f f h f f k k x v v v G G G E W Q ! ~ ~ ( ( ' [ [ } oXoXoXoXoXoXoXoXoXoXoXoX",
"oXoXoXoXoXoXoXoXoXoXoXoXoXX X X X X X o X o + o O p f f h f f k k x x v c v F R E E W ! ~ ~ ( ( ' [ [ oXoXoXoXoXoXoXoXoXoXoXoXoX",
"oXoXoXoXoXoXoXoXoXoXoXoXoXoXX X X X X X X X o + + # p f f f f k z z x x c b T T R E W ! ~ ~ ~ ( ( ' oXoXoXoXoXoXoXoXoXoXoXoXoXoX",
"oXoXoXoXoXoXoXoXoXoXoXoXoXoXoXX X X X X X X o o o + # p f f f f k z x b x d T T R E W W ! ~ ~ / ( oXoXoXoXoXoXoXoXoXoXoXoXoXoXoX",
"oXoXoXoXoXoXoXoXoXoXoXoXoXoXoXoXX X X X X X X o o o + O p f f f f k z z s s T T R R W W ! ~ / ( oXoXoXoXoXoXoXoXoXoXoXoXoXoXoXoX",
"oXoXoXoXoXoXoXoXoXoXoXoXoXoXoXoXoXX X X X X X o o o o + O p f f k k z t i s s s R R E W ! ! ~ oXoXoXoXoXoXoXoXoXoXoXoXoXoXoXoXoX",
"oXoXoXoXoXoXoXoXoXoXoXoXoXoXoXoXoXoXX X X X X X X o o o + O p f f f t t i s s T T R E E W ! oXoXoXoXoXoXoXoXoXoXoXoXoXoXoXoXoXoX",
"oXoXoXoXoXoXoXoXoXoXoXoXoXoXoXoXoXoXoXX X X X X X o X o o + O p a e r y u i s T T R E E W oXoXoXoXoXoXoXoXoXoXoXoXoXoXoXoXoXoXoX",
"oXoXoXoXoXoXoXoXoXoXoXoXoXoXoXoXoXoXoXoXX X X X X X X o o o + # e w e y y i s s T R R E oXoXoXoXoXoXoXoXoXoXoXoXoXoXoXoXoXoXoXoX",
"oXoXoXoXoXoXoXoXoXoXoXoXoXoXoXoXoXoXoXoXoXX X X X X X o o o o oXoXw e r y u s s T T R oXoXoXoXoXoXoXoXoXoXoXoXoXoXoXoXoXoXoXoXoX",
"oXoXoXoXoXoXoXoXoXoXoXoXoXoXoXoXoXoXoXoXoXoXX X X X X X X o oXoXoXoXe r y u i s T T oXoXoXoXoXoXoXoXoXoXoXoXoXoXoXoXoXoXoXoXoXoX",
"oXoXoXoXoXoXoXoXoXoXoXoXoXoXoXoXoXoXoXoXoXoXoXX X X X X oXoXoXoXoXoXoXoXr y i s d oXoXoXoXoXoXoXoXoXoXoXoXoXoXoXoXoXoXoXoXoXoXoX",
"oXoXoXoXoXoXoXoXoXoXoXoXoXoXoXoXoXoXoXoXoXoXoXoXoXoXoXoXoXoXoXoXoXoXoXoXoXoXoXoXoXoXoXoXoXoXoXoXoXoXoXoXoXoXoXoXoXoXoXoXoXoXoXoX",
"oXoXoXoXoXoXoXoXoXoXoXoXoXoXoXoXoXoXoXoXoXoXoXoXoXoXoXoXoXoXoXoXoXoXoXoXoXoXoXoXoXoXoXoXoXoXoXoXoXoXoXoXoXoXoXoXoXoXoXoXoXoXoXoX",
"oXoXoXoXoXoXoXoXoXoXoXoXoXoXoXoXoXoXoXoXoXoXoXoXoXoXoXoXoXoXoXoXoXoXoXoXoXoXoXoXoXoXoXoXoXoXoXoXoXoXoXoXoXoXoXoXoXoXoXoXoXoXoXoX",
"oXoXoXoXoXoXoXoXoXoXoXoXoXoXoXoXoXoXoXoXoXoXoXoXoXoXoXoXoXoXoXoXoXoXoXoXoXoXoXoXoXoXoXoXoXoXoXoXoXoXoXoXoXoXoXoXoXoXoXoXoXoXoXoX",
"oXoXoXoXoXoXoXoXoXoXoXoXoXoXoXoXoXoXoXoXoXoXoXoXoXoXoXoXoXoXoXoXoXoXoXoXoXoXoXoXoXoXoXoXoXoXoXoXoXoXoXoXoXoXoXoXoXoXoXoXoXoXoXoX",
"oXoXoXoXoXoXoXoXoXoXoXoXoXoXoXoXoXoXoXoXoXoXoXoXoXoXoXoXoXoXoXoXoXoXoXoXoXoXoXoXoXoXoXoXoXoXoXoXoXoXoXoXoXoXoXoXoXoXoXoXoXoXoXoX"
};
